<?xml version="1.0" encoding="utf-8"?>
<svg id="master-artboard" version="1.1" x="0px" style="enable-background:new 0 0 1400 980;" height="108.0145492553711px" width="370.1166687011719px" viewBox="0 0 370.1166625857813 108.01455184812583" xmlns="http://www.w3.org/2000/svg"><g xmlns="http://www.w3.org/2000/svg" transform="matrix(0.9875848293304444, 0, 0, 0.9875848293304444, 1.0621138811111166, 3.2438198237906164)"><g><path d="M57.678,37.15c-0.424-0.236-0.841-0.491-1.266-0.725c-0.846-0.479-1.781-0.731-2.752-0.89l-1.563-0.256l-0.13,1.049    c-0.061,0.499-0.069,1.016-0.061,1.539c0.02,0.526,0.067,1.062,0.21,1.629l0.041,0.165l0.072,0.026    c0.824,0.294,1.656,0.557,2.485,0.822c0.829,0.27,1.66,0.532,2.494,0.775l0.399,0.116l0.445-0.448    c0.473-0.474,0.926-0.961,1.379-1.447l0.914-0.976l-1.384-0.706C58.535,37.601,58.104,37.384,57.678,37.15z M52.593,39.403    c0.356-0.316,0.66-0.642,0.938-0.984c0.576,0.317,1.174,0.578,1.816,0.728c0.471,0.116,0.948,0.212,1.422,0.327    c0.041,0.01,0.08,0.023,0.121,0.033c-0.006,0.007-0.01,0.013-0.014,0.02c-0.659-0.031-1.318-0.06-1.979-0.076    C54.131,39.427,53.363,39.407,52.593,39.403z" style="fill: rgb(255, 174, 0);"/><path d="M94.951,48.64c-0.029-0.471-0.059-0.941-0.087-1.409c-0.029-0.468-0.058-0.935-0.087-1.4    c-0.032-0.466-0.041-0.922-0.137-1.409c-0.988-7.721-3.888-14.446-7.686-19.872c-3.831-5.405-8.487-9.412-12.982-12.227    c-4.502-2.857-8.928-4.386-12.57-5.37c-0.922-0.222-1.793-0.433-2.614-0.631c-0.824-0.175-1.615-0.248-2.341-0.365    c-0.729-0.105-1.401-0.201-2.018-0.29c-0.617-0.086-1.188-0.066-1.693-0.1c-2.024-0.084-3.104-0.128-3.104-0.128h-0.007    c0,0-1.076,0.054-3.092,0.157c-0.504,0.039-1.069,0.024-1.685,0.115c-0.616,0.094-1.289,0.197-2.017,0.308    c-0.725,0.123-1.515,0.203-2.337,0.386c-0.816,0.21-1.682,0.433-2.598,0.669c-3.616,1.044-7.99,2.638-12.416,5.535    c-4.418,2.862-8.966,6.891-12.694,12.262c-3.692,5.372-6.456,12.104-7.431,19.57c-0.157,0.927-0.144,1.879-0.224,2.828    c-0.029,0.476-0.058,0.953-0.087,1.432L5,49.421c-0.001,0.313,0.018,0.494,0.026,0.749c0.108,1.902,0.078,3.805,0.453,5.792    c0.459,3.981,1.691,7.845,3.269,11.646c0.442,0.932,0.885,1.865,1.33,2.803c0.458,0.931,1.047,1.796,1.569,2.701l0.809,1.349    l0.931,1.272c0.638,0.838,1.228,1.721,1.913,2.528c2.721,3.265,5.957,6.138,9.511,8.622c3.609,2.417,7.603,4.281,11.781,5.654    c4.214,1.291,8.619,1.896,13.04,2.023l3.287-0.14c0.543-0.039,1.065-0.009,1.625-0.104l1.664-0.236l1.664-0.241l0.832-0.122    l0.805-0.197l3.216-0.804c4.213-1.319,8.26-3.137,11.935-5.522c3.614-2.454,6.935-5.305,9.719-8.584    c0.702-0.811,1.31-1.695,1.964-2.539c0.319-0.428,0.648-0.848,0.957-1.278l0.835-1.354c0.539-0.912,1.146-1.785,1.62-2.725    c0.462-0.945,0.921-1.89,1.379-2.829c1.614-3.843,2.879-7.798,3.354-11.796c0.385-1.979,0.369-3.977,0.481-5.933l0.019-0.367    l0.008-0.183l0.004-0.092c0.003-0.015-0.005-0.2-0.005-0.164L94.951,48.64z M92.039,50.111c-0.124,1.831-0.112,3.7-0.489,5.545    c-0.253,2.051-0.739,4.086-1.375,6.096l-0.577-0.248c-1.002-0.431-2.02-0.837-3.05-1.224c-0.251-0.117-0.526-0.22-0.825-0.308    c-0.138-0.05-0.271-0.104-0.41-0.152l-0.177-0.062l-0.005,0.056l-0.288-0.063l0.271,0.272l0,0    c-0.05,0.555,0.024,1.033,0.133,1.494c0.103,0.465,0.271,0.892,0.464,1.297c0.193,0.408,0.434,0.785,0.743,1.105    c0.312,0.322,0.68,0.596,1.019,0.893l1.197,1.056c-0.105,0.258-0.21,0.517-0.318,0.772c-0.42,0.881-0.843,1.765-1.266,2.65    c-0.436,0.881-0.997,1.697-1.488,2.557l-0.768,1.276l-0.887,1.203c-0.604,0.792-1.161,1.629-1.813,2.394    c-2.586,3.084-5.638,5.814-9,8.176c-3.414,2.295-7.193,4.065-11.145,5.377l-3.022,0.807l-0.757,0.201l-0.762,0.121L55.92,91.65    l-1.527,0.252c-0.5,0.102-1.063,0.082-1.594,0.13l-3.166,0.188c-4.193-0.073-8.384-0.59-12.408-1.766    c-3.988-1.259-7.819-2.981-11.297-5.247c-3.423-2.332-6.558-5.041-9.208-8.137c-0.667-0.769-1.241-1.607-1.864-2.403l-0.911-1.21    l-0.792-1.285c-0.511-0.863-1.091-1.688-1.542-2.576c-0.439-0.896-0.877-1.787-1.313-2.677C8.739,63.3,7.49,59.531,7.013,55.781    c-0.386-1.838-0.388-3.799-0.518-5.688c-0.01-0.22-0.034-0.512-0.033-0.672l0.028-0.697c0.019-0.464,0.037-0.926,0.056-1.387    c0.059-0.92,0.023-1.844,0.158-2.745c0.791-7.257,3.344-13.866,6.797-19.245c3.491-5.381,7.894-9.466,12.218-12.377    c1.112-0.684,2.176-1.371,3.228-1.99c1.096-0.541,2.152-1.061,3.167-1.562c0.5-0.268,1.033-0.43,1.54-0.623    c0.51-0.187,1.008-0.37,1.495-0.548c0.487-0.179,0.963-0.353,1.427-0.524c0.478-0.125,0.945-0.248,1.399-0.367    c0.909-0.234,1.77-0.456,2.58-0.665c0.815-0.181,1.596-0.26,2.314-0.382c0.72-0.11,1.386-0.213,1.996-0.306    c0.611-0.091,1.18-0.076,1.682-0.115c1.987-0.101,3.055-0.155,3.086-0.157c0.008,0.001,1.077,0.065,3.079,0.185    c0.501,0.043,1.065,0.034,1.677,0.13c0.609,0.099,1.274,0.207,1.994,0.325C57.1,6.5,57.88,6.586,58.693,6.775    c0.805,0.221,1.66,0.455,2.563,0.703c0.45,0.126,0.913,0.256,1.389,0.389c0.459,0.178,0.931,0.36,1.414,0.546    c0.48,0.186,0.975,0.377,1.479,0.571c0.501,0.2,1.027,0.37,1.521,0.646c1.002,0.513,2.045,1.047,3.125,1.601    c1.037,0.632,2.084,1.331,3.176,2.025c4.244,2.959,8.541,7.065,11.929,12.412c0.392,0.685,0.788,1.377,1.188,2.076    c0.396,0.7,0.83,1.387,1.135,2.151c0.654,1.503,1.428,2.982,1.914,4.61c0.271,0.801,0.563,1.603,0.826,2.42    c0.196,0.836,0.396,1.678,0.599,2.527c0.103,0.423,0.204,0.848,0.309,1.275c0.101,0.426,0.132,0.857,0.201,1.287    c0.123,0.86,0.247,1.726,0.371,2.598c0.083,0.424,0.082,0.899,0.103,1.363c0.02,0.466,0.037,0.933,0.057,1.401    c0.018,0.469,0.035,0.939,0.056,1.41l0.028,0.709L92.039,50.111z" style="fill: rgb(255, 174, 0);"/><path d="M90.975,44.068c-0.109-0.898-0.276-1.789-0.414-2.685c-0.164-0.891-0.381-1.771-0.569-2.659    c-0.212-0.883-0.496-1.745-0.741-2.62c-0.268-0.868-0.609-1.711-0.913-2.569c-0.317-0.852-0.708-1.676-1.062-2.517    c-0.373-0.831-0.815-1.629-1.223-2.447c-0.43-0.805-0.922-1.575-1.382-2.367c-0.485-0.775-1.024-1.515-1.536-2.276    c-0.539-0.74-1.121-1.448-1.683-2.176c-0.591-0.702-1.214-1.377-1.822-2.067c-0.638-0.661-1.302-1.298-1.954-1.95l-2.08-1.823    l-2.197-1.688l-2.306-1.546l-1.01-0.677L69.7,12.73l-2.367-0.332l-0.308-0.043l-0.336,0.139c-2.33,0.966-4.662,1.926-6.983,2.912    c-2.379-1.575-4.758-3.15-7.158-4.693L51.8,10.232l-0.78,0.439l-6.895,3.879l-0.466,0.262l-0.198,0.511    c-1.006,2.598-2.008,5.198-2.978,7.81l-0.162,0.437l0.1,0.433l1.143,4.927l-1.653,1.508c-0.545-0.851-1.1-1.697-1.657-2.542    c-0.657-1.001-1.316-2.001-1.998-2.989l-0.076-0.111l-0.168,0.089c-0.439,0.231-0.834,0.497-1.224,0.767    c-0.381,0.277-0.762,0.554-1.112,0.855c-0.72,0.586-1.383,1.218-2.018,1.87l-0.459,0.472l0.252,0.917    c0.23,0.837,0.496,1.66,0.858,2.446l0.673,1.459l1.288-0.605c0.185-0.087,0.367-0.182,0.55-0.275    c0.07,0.214,0.148,0.427,0.217,0.641l0.47,1.466l0.682-0.441l0.008,0.099l0.12,1.539l-2.299,0.792l-0.837,0.288l-0.088,0.856    l-0.344,3.352l-0.086,0.843l0.627,0.389l-0.378,0.162l-0.199,0.462l-4.191,9.71l-0.251,0.58l0.321,0.521l4.334,7.035l0.346,0.562    l0.642-0.018l8.849-0.23l0.767,11.619l0.011,0.174l0.064,0.146l2.649,6.123l0.282,0.653l0.691-0.102l6.69-0.982l0.538-0.079    l0.166-0.507l5.423-16.477l4.503-5.896l0.486-0.637l-0.7-0.354l-2.628-1.336l5.814-1.873l0.168-0.056l0.092-0.131l1.619-2.274    l4.976,7.896l0.101,0.159l0.18-0.019l2.049-0.209l0.115-0.012l0.072-0.088l2.521-3.132c0.848-1.036,1.693-2.082,2.576-3.077    c0.049-0.055,0.103-0.113,0.154-0.168l0.063,0.162c0.146,0.319,0.314,0.612,0.486,0.904c0.349,0.58,0.716,1.142,1.08,1.707    c0.733,1.125,1.494,2.23,2.268,3.328l0.048,0.07l0.084-0.009l4.345-0.36l0.117-0.011l0.016-0.11l0.461-3.471l0.168-3.479v-0.007    l-0.063-2.713C91.148,45.871,91.053,44.971,90.975,44.068z M48.039,27.666c-0.183-1.147-0.363-2.295-0.507-3.445    c0.374-0.784,0.734-1.576,1.101-2.364c0.54,1.18,1.081,2.359,1.644,3.531c-0.806,0.764-1.49,1.591-2.135,2.436    c-0.026,0.002-0.052,0.004-0.078,0.006L48.039,27.666z M35.231,27.723c0.208-0.412,0.385-0.849,0.562-1.285    c0.13-0.341,0.239-0.69,0.345-1.05c0.392,1.002,0.797,1.997,1.208,2.99c0.344,0.835,0.692,1.667,1.043,2.498    c-0.466,0.212-0.93,0.429-1.393,0.645c-0.049-0.305-0.108-0.607-0.15-0.913l-0.187-1.354l-1.576,0.453    c-0.153,0.044-0.306,0.087-0.46,0.131c-0.076-0.174-0.161-0.344-0.242-0.516C34.68,28.802,34.971,28.274,35.231,27.723z     M42.552,37.861c-0.021-0.028-0.029-0.042-0.009-0.013l0.007,0.01C42.534,37.825,42.543,37.844,42.552,37.861z M43.009,38.56    c0.028,0.041,0.059,0.092,0.086,0.128c0.605,0.81,1.216,1.588,1.84,2.359l0.201,1.442l0.049,0.351    c-0.438-0.012-0.876-0.023-1.314-0.029l-0.721-0.95l-0.484-0.638l-0.683,0.045L39.959,41.4c0.736-0.722,1.478-1.434,2.227-2.122    C42.459,39.028,42.738,38.785,43.009,38.56z M47.943,40.959l0.316-0.377l-0.27-0.351l-1.72-2.236l0.066-0.011l3.394,3.66    l0.053,0.028c1.237,0.64,2.497,1.209,3.763,1.754c-0.02,0.307-0.035,0.615-0.052,0.922c-0.498-0.159-0.996-0.317-1.497-0.462    c-0.941-0.271-1.878-0.56-2.822-0.817l-0.085-0.023l-0.195-0.016c-0.851-0.07-1.702-0.116-2.554-0.153L47.943,40.959z     M82.098,50.503c0-0.001,0-0.001,0-0.002c0.002,0.001,0-0.002,0,0V50.503L82.098,50.503z M90.373,56.282l-4.143,0.344    c-0.754-1.071-1.498-2.155-2.215-3.252c-0.365-0.56-0.726-1.125-1.052-1.706c-0.162-0.289-0.319-0.583-0.446-0.876l-0.078-0.214    c0.002-0.02,0.002-0.031-0.006-0.047l-0.009-0.012l-0.005-0.15c0.029,0.024-0.072-0.138-0.214-0.106    c-0.12,0.039-0.073,0.036-0.101,0.046c-0.166,0.134-0.267,0.248-0.389,0.375c-0.92,0.99-1.783,2.012-2.658,3.032l-2.521,2.986    l-1.752,0.139l-4.979-8.48l-0.34-0.577l-0.414,0.544l-1.99,2.615l-7.127,2.096l-1.41,0.414l1.308,0.704l3.183,1.715l-4.228,5.288    l-0.075,0.094L58.67,61.38l-5.521,15.996L47.679,78.1l-2.226-5.354l-0.643-12.49l-0.052-1.008l-1.025,0.012l-9.201,0.107    l-3.572-6.009l3.897-8.593l1.777-0.723l0.247-0.101l0.078,0.001l4.289,0.071l0.682,1.081l0.358,0.567l0.783,0.062    c1.867,0.147,3.736,0.244,5.609,0.253c0.895,0.181,1.795,0.34,2.693,0.512c0.962,0.182,1.934,0.323,2.9,0.486l1.584,0.267    l-0.186-1.418c-0.129-0.989-0.257-1.978-0.408-2.964l-0.107-0.688l-0.498-0.089c-1.569-0.28-3.149-0.524-4.754-0.686l-3.128-4.085    l-0.118-0.155l-0.229,0.019l-0.997,0.081l-0.701,0.057l0.4,0.622l1.638,2.551l-0.353,0.356l-0.011-0.182l-0.011-0.186l-0.14-0.197    c-0.599-0.845-1.184-1.705-1.737-2.558c-0.138-0.214-0.192-0.353-0.303-0.523l-0.076-0.121l-0.117-0.23    c0.064,0.081-0.161-0.251-0.396-0.329c-0.058-0.026-0.117-0.045-0.172-0.058l-0.069-0.012c-0.042-0.006-0.086-0.01-0.129-0.011    c-0.102-0.002-0.153,0.007-0.186,0.013c-0.096,0.016-0.161,0.036-0.197,0.049c-0.053,0.018-0.089,0.033-0.118,0.045    c-0.245,0.111-0.349,0.188-0.488,0.274c-0.497,0.331-0.908,0.656-1.331,0.991c-1.511,1.214-2.946,2.464-4.381,3.733l-1.053-0.679    l0.2-1.649l2.536-0.823l1.017-0.33l-0.065-1.093l-0.114-1.904l3.506-3.112l2.622-0.723c0.634-0.175,1.265-0.361,1.89-0.576    c0.627-0.205,1.243-0.457,1.864-0.69l0.645-0.242l0.103-0.344c0.376-1.258,0.72-2.532,0.874-3.901l0.011-0.098l-0.004-0.017    c-0.345-1.359-0.717-2.708-1.088-4.057l0.575-2.612l0.875-3.977l-2.272,3.516c-1.127,1.744-2.238,3.497-3.327,5.262l-0.144,0.233    l0.006,0.394c0.016,1.013-0.002,2.028-0.023,3.043c-0.273,0.275-0.54,0.554-0.799,0.841l-0.93-4.215    c0.894-2.29,1.764-4.589,2.629-6.89l5.623-3.219c2.355,1.505,4.727,2.986,7.098,4.467l0.646,0.403l0.666-0.299    c2.438-1.097,4.86-2.23,7.288-3.355l2.808,0.262l0.632,0.059l1.346,0.793l2.182,1.483l2.085,1.623    c0.657,0.586,1.33,1.159,1.979,1.758c0.619,0.629,1.26,1.241,1.865,1.885c0.577,0.669,1.18,1.321,1.741,2.006    c0.534,0.706,1.099,1.395,1.611,2.119c0.487,0.741,1.01,1.463,1.473,2.222c0.438,0.773,0.917,1.527,1.327,2.318    c0.389,0.801,0.818,1.586,1.174,2.405c0.328,0.829,0.699,1.645,0.993,2.488c0.272,0.85,0.589,1.69,0.829,2.551    c0.216,0.868,0.479,1.727,0.654,2.604c0.154,0.882,0.336,1.761,0.467,2.648c0.096,0.891,0.21,1.781,0.292,2.675l0.118,2.688    l-0.168,3.474L90.373,56.282z" style="fill: rgb(255, 174, 0);"/><path d="M12.72,35.001l0.103-0.232c0.244-0.548,0.312-1.008,0.337-1.447c0.019-0.438-0.032-0.836-0.144-1.207l-0.879-2.912    l-1.841,2.97c-0.319,0.514-0.257,1.192-0.366,1.785c-0.103,0.597-0.232,1.18-0.306,1.777l-0.279,2.27l1.465-1.247    C11.464,36.203,12.103,35.624,12.72,35.001z M12.192,34.797c0.004-0.007,0.01-0.013,0.014-0.02    c0.01,0.003,0.017,0.008,0.027,0.011C12.22,34.791,12.206,34.795,12.192,34.797z" style="fill: rgb(255, 174, 0);"/><path d="M18.203,61.997c-0.64-0.372-1.282-0.742-1.904-1.142c-0.634-0.381-1.234-0.814-1.852-1.222l-0.006-0.004l-0.011-0.006    c-1.809-0.907-3.519-2.024-5.204-3.198l-1.267-0.881l0.094,1.791c0.044,0.833,0.105,1.671,0.178,2.514    c0.134,0.825,0.274,1.657,0.463,2.479c0.219,0.811,0.49,1.607,0.748,2.406c0.304,0.783,0.639,1.556,0.982,2.322    c0.381,0.75,0.788,1.484,1.196,2.217l1.336,2.129l1.44,2.05l1.541,1.967l0.743,0.948l0.829-0.805l2.331-2.267l0.209-0.203    l0.06-0.21l1.15-4.048c0.385-1.351,0.764-2.699,1.089-4.067l0.11-0.466l-0.34-0.186C20.815,63.405,19.495,62.723,18.203,61.997z     M19.752,68.346l-1.354,3.676l-1.38,1.15l-0.692-1.038l-1.184-2.046l-1.045-2.113c-0.301-0.726-0.62-1.438-0.933-2.156    c-0.279-0.729-0.584-1.447-0.887-2.168c-0.275-0.729-0.553-1.459-0.853-2.186c-0.253-0.74-0.564-1.466-0.863-2.201    c-0.103-0.274-0.217-0.555-0.323-0.832c1.386,0.418,2.75,0.881,4.062,1.454c0.619,0.397,1.254,0.767,1.856,1.189    c0.618,0.405,1.216,0.843,1.816,1.276c1.062,0.793,2.102,1.615,3.153,2.426C20.64,65.959,20.191,67.15,19.752,68.346z" style="fill: rgb(255, 174, 0);"/><path d="M65.475,12.147l0.42-0.114c0.143-0.047,0.285-0.095,0.445-0.16l0.372-0.151c0.236-0.055,0.414-0.099,0.563-0.145    l0.231-0.076c0.071-0.025,0.129-0.048,0.181-0.07l-0.738-1.022c0.021-0.212,0.01-0.351-0.098-0.279    c-0.05,0.026-0.117,0.095-0.172,0.137c-0.061,0.053-0.105,0.073-0.154,0.103l-3.688,2.192l2.44-0.369    C65.338,12.184,65.411,12.161,65.475,12.147z" style="fill: rgb(255, 174, 0);"/><path d="M28.407,21.624c0.257,0.055,1.726,0.157,2.19,0.11c0.464-0.045,0.919-0.122,1.345-0.284    c0.429-0.155,0.83-0.398,1.238-0.619l3.052-1.655l-2.866-0.763c-0.548-0.146-1.067-0.35-1.596-0.533    c-0.525-0.192-1.057-0.369-1.593-0.539l-0.802-0.254l-0.26,0.521c-0.583,1.168-1.146,2.351-1.664,3.565l-0.058,0.137l0.006,0.002    C27.399,21.311,28.155,21.572,28.407,21.624z" style="fill: rgb(255, 174, 0);"/><path d="M60.26,69.743c-0.463,0.981-0.941,1.952-1.378,2.952l-0.028,0.063l0.078,0.145c0.281,0.516,0.608,0.951,0.952,1.356    c0.169,0.207,0.355,0.388,0.532,0.582c0.182,0.188,0.368,0.364,0.559,0.534l1.199,1.066l0.702-2.004    c0.194-0.559,0.365-1.119,0.472-1.688c0.107-0.569,0.127-1.151,0.115-1.738c-0.038-1.174,0.029-2.334,0.071-3.495l0.167-4.623    l-1.998,3.938C61.212,67.796,60.721,68.759,60.26,69.743z" style="fill: rgb(255, 174, 0);"/><path d="M16.379,26.346l1.144,0.872l0.567-1.072c0.564-1.065,1.1-2.148,1.625-3.238c0.004-0.006,0.008-0.012,0.012-0.018    c0.337-0.486,0.653-0.996,0.916-1.57c0.261-0.55,0.494-1.136,0.65-1.825c0.013-0.03-0.179-0.277-0.179-0.277l-0.003,0.001    c-0.693,0.155-1.297,0.428-1.876,0.734c-0.586,0.3-1.119,0.664-1.629,1.052c-0.472,0.422-0.901,0.888-1.255,1.413    c-0.356,0.524-0.652,1.091-0.984,1.624l-0.648,1.038l0.79,0.602L16.379,26.346z" style="fill: rgb(255, 174, 0);"/></g></g><path d="M2.4 5.800000000000001 c0.36 0 0.67002 0.13002 0.93002 0.39002 s0.39 0.57 0.39 0.93 c0 0.37334 -0.13334 0.68668 -0.4 0.94002 s-0.57332 0.38 -0.91998 0.38 c-0.37334 0 -0.68668 -0.12666 -0.94002 -0.38 s-0.38 -0.56668 -0.38 -0.94002 s0.13334 -0.68668 0.4 -0.94002 s0.57332 -0.38 0.91998 -0.38 z M3.3 10.52 l0.000019531 11.02 c0 2.1734 -0.96666 3.26 -2.9 3.26 c-0.44 0 -0.82666 -0.06 -1.16 -0.18 l0.2 -1.66 c0.32 0.10666 0.56666 0.16 0.74 0.16 c0.50666 0 0.85332 -0.15666 1.04 -0.47 s0.28 -0.74334 0.28 -1.29 l0 -10.84 l1.8 0 z M10.74 10.28 c1.4 0 2.5866 0.48338 3.56 1.45 s1.4667 2.1434 1.48 3.53 c0 1.4 -0.48666 2.5734 -1.46 3.52 s-2.1666 1.4333 -3.58 1.46 c-1.3867 0 -2.5666 -0.48 -3.54 -1.44 s-1.4733 -2.14 -1.5 -3.54 c0 -1.3733 0.48334 -2.54 1.45 -3.5 s2.1634 -1.4533 3.59 -1.48 z M7.619999999999999 15.26 c0 0.97334 0.28664 1.7633 0.85998 2.37 s1.3267 0.91666 2.26 0.93 c0.94666 0 1.7 -0.30334 2.26 -0.91 s0.84666 -1.4033 0.86 -2.39 c0 -0.97334 -0.28 -1.7633 -0.84 -2.37 s-1.3267 -0.91666 -2.3 -0.93 c-0.94666 0 -1.7 0.31334 -2.26 0.94 s-0.84 1.4133 -0.84 2.36 z M19.84 10.52 l0 5.68 c0 0.74666 0.19666 1.3267 0.59 1.74 s0.91668 0.62 1.57 0.62 c0.84 0 1.49 -0.27666 1.95 -0.83 s0.69 -1.3033 0.69 -2.25 l0 -4.96 l1.8 0 l0 9.48 l-1.8 0 l0 -1.46 l-0.04 0 c-0.25334 0.53334 -0.66668 0.95 -1.24 1.25 s-1.2 0.45 -1.88 0.45 c-1.0533 0 -1.89 -0.32666 -2.51 -0.98 s-0.93 -1.5067 -0.93 -2.56 l0 -6.18 l1.8 0 z M33.84 10.28 c0.33334 0 0.6 0.04 0.8 0.12 l-0.08 1.94 c-0.34666 -0.09334 -0.64666 -0.14 -0.9 -0.14 c-1.7733 0 -2.6734 0.98666 -2.7 2.96 l0 4.84 l-1.8 0 l0 -9.48 l1.8 0 l0 1.46 l0.04 0 c0.24 -0.50666 0.62666 -0.91666 1.16 -1.23 s1.0933 -0.47 1.68 -0.47 z M41.52 10.28 c1.0667 0 1.9033 0.32 2.51 0.96 s0.91666 1.5 0.93 2.58 l0 6.18 l-1.8 0 l0 -5.66 c0 -0.73334 -0.19 -1.3133 -0.57 -1.74 s-0.91 -0.64 -1.59 -0.64 c-0.84 0 -1.49 0.28 -1.95 0.84 s-0.69 1.3067 -0.69 2.24 l0 4.96 l-1.8 0 l0 -9.48 l1.8 0 l0 1.46 l0.04 0 c0.25334 -0.53334 0.66334 -0.95 1.23 -1.25 s1.1967 -0.45 1.89 -0.45 z M52.02000000000001 10.28 c1.4533 0 2.5834 0.45664 3.39 1.37 s1.2167 2.17 1.23 3.77 l0 0.5 l-7.6 0 c0 0.77334 0.31 1.4233 0.93 1.95 s1.3767 0.79666 2.27 0.81 c0.98666 0 1.8533 -0.47334 2.6 -1.42 l1.36 1.04 c-1.0133 1.2933 -2.4134 1.94 -4.2 1.94 c-1.4533 0 -2.6234 -0.46334 -3.51 -1.39 s-1.3433 -2.1234 -1.37 -3.59 c0 -1.4133 0.45666 -2.59 1.37 -3.53 s2.09 -1.4233 3.53 -1.45 z M54.720000000000006 14.48 c-0.02666 -0.89334 -0.28 -1.5767 -0.76 -2.05 s-1.14 -0.71 -1.98 -0.71 c-0.56 0 -1.0633 0.13666 -1.51 0.41 s-0.79666 0.62668 -1.05 1.06 s-0.38 0.86334 -0.38 1.29 l5.68 0 z M59.74000000000001 10.52 l2.82 7.4 l0.04 0 l2.68 -7.4 l1.94 0 l-4.48 11.48 c-0.41334 1.1067 -0.86668 1.85 -1.36 2.23 s-1.1267 0.57 -1.9 0.57 c-0.65334 0 -1.1867 -0.08666 -1.6 -0.26 l0.22 -1.62 c0.37334 0.13334 0.73334 0.2 1.08 0.2 c0.56 0 0.96334 -0.13666 1.21 -0.41 s0.46332 -0.66334 0.64998 -1.17 l0.56 -1.48 l-3.94 -9.54 l2.08 0 z" transform="matrix(3.841081857681275, 0, 0, 3.841081857681275, 107.1755142211914, -6.983521461486816)" style="fill: rgb(255, 255, 255);"/></svg>